<svg xmlns="http://www.w3.org/2000/svg" xmlns:xlink="http://www.w3.org/1999/xlink" width="66" height="66" viewBox="0 0 66 66">
  <defs>
    <filter id="Ellipse_2" x="0" y="0" width="66" height="66" filterUnits="userSpaceOnUse">
      <feOffset input="SourceAlpha"/>
      <feGaussianBlur stdDeviation="5" result="blur"/>
      <feFlood flood-opacity="0.059"/>
      <feComposite operator="in" in2="blur"/>
      <feComposite in="SourceGraphic"/>
    </filter>
  </defs>
  <g id="Group_437" data-name="Group 437" transform="translate(-1637 -18)">
    <g transform="matrix(1, 0, 0, 1, 1637, 18)" filter="url(#Ellipse_2)">
      <circle id="Ellipse_2-2" data-name="Ellipse 2" cx="18" cy="18" r="18" transform="translate(15 15)" fill="#fff"/>
    </g>
    <g id="git-compare-outline" transform="translate(1660.75 41.875)">
      <path id="Path_1" data-name="Path 1" d="M10.688,5.625l-2.25-2.25,2.25-2.25" fill="none" stroke="#000" stroke-linecap="round" stroke-linejoin="round" stroke-width="1.125"/>
      <path id="Path_2" data-name="Path 2" d="M7.277,12.375l2.25,2.25-2.25,2.25" fill="none" stroke="#000" stroke-linecap="round" stroke-linejoin="round" stroke-width="1.125"/>
      <path id="Path_3" data-name="Path 3" d="M5.625,3.375a1.688,1.688,0,1,1-3.375,0,1.688,1.688,0,0,1,3.375,0Z" fill="none" stroke="#000" stroke-linecap="round" stroke-linejoin="round" stroke-width="1.125"/>
      <path id="Path_4" data-name="Path 4" d="M15.75,14.625a1.688,1.688,0,1,1-1.688-1.647,1.688,1.688,0,0,1,1.688,1.647Z" fill="none" stroke="#000" stroke-linecap="round" stroke-linejoin="round" stroke-width="1.125"/>
      <path id="Path_5" data-name="Path 5" d="M9,3.375h2.953a2.109,2.109,0,0,1,2.109,2.109v7.453" fill="none" stroke="#000" stroke-linecap="round" stroke-linejoin="round" stroke-width="1.125"/>
      <path id="Path_6" data-name="Path 6" d="M8.965,14.625H6.012A2.109,2.109,0,0,1,3.9,12.516V5.063" fill="none" stroke="#000" stroke-linecap="round" stroke-linejoin="round" stroke-width="1.125"/>
    </g>
  </g>
</svg>
